<svg width="24" height="24" viewBox="0 0 24 24" fill="none" xmlns="http://www.w3.org/2000/svg">
<path fill-rule="evenodd" clip-rule="evenodd" d="M8 6C8 3.79086 9.79086 2 12 2C14.2091 2 16 3.79086 16 6C16 8.20914 14.2091 10 12 10C9.79086 10 8 8.20914 8 6Z" fill="#FBBF24"/>
<path fill-rule="evenodd" clip-rule="evenodd" d="M16.5 22C14.85 22 14.025 22 13.513 21.487C13 20.975 13 20.15 13 18.5C13 16.85 13 16.025 13.513 15.513C14.025 15 14.85 15 16.5 15C18.15 15 18.975 15 19.487 15.513C20 16.025 20 16.85 20 18.5C20 20.15 20 20.975 19.487 21.487C18.975 22 18.15 22 16.5 22ZM17.083 16.944C17.083 16.622 16.822 16.361 16.5 16.361C16.178 16.361 15.917 16.622 15.917 16.944V17.917H14.944C14.622 17.917 14.361 18.178 14.361 18.5C14.361 18.822 14.622 19.083 14.944 19.083H15.917V20.056C15.917 20.378 16.178 20.639 16.5 20.639C16.822 20.639 17.083 20.378 17.083 20.056V19.083H18.056C18.378 19.083 18.639 18.822 18.639 18.5C18.639 18.178 18.378 17.917 18.056 17.917H17.083V16.944Z" fill="#FBBF24"/>
<path fill-rule="evenodd" clip-rule="evenodd" d="M15.678 13.503C15.205 13.508 14.764 13.526 14.38 13.577C13.737 13.664 13.033 13.87 12.452 14.452C11.87 15.033 11.664 15.737 11.578 16.38C11.5 16.958 11.5 17.664 11.5 18.414V18.586C11.5 19.336 11.5 20.042 11.578 20.62C11.638 21.071 11.758 21.552 12.025 22H12C4 22 4 19.985 4 17.5C4 15.015 7.582 13 12 13C13.326 13 14.577 13.181 15.678 13.503Z" fill="#FBBF24"/>
</svg>
